<svg xmlns="http://www.w3.org/2000/svg" xmlns:xlink="http://www.w3.org/1999/xlink" width="200" zoomAndPan="magnify" viewBox="0 0 150 37.5" height="50" preserveAspectRatio="xMidYMid meet" version="1.0"><defs><g/><clipPath id="b2ffeb463a"><path d="M 1.570312 0.8125 L 148.472656 0.8125 L 148.472656 36.191406 L 1.570312 36.191406 Z M 1.570312 0.8125 " clip-rule="nonzero"/></clipPath><clipPath id="54f487b1ac"><path d="M 131.085938 0.8125 C 140.664062 0.8125 148.429688 8.734375 148.429688 18.503906 C 148.429688 28.273438 140.664062 36.191406 131.085938 36.191406 L 18.914062 36.191406 C 9.335938 36.191406 1.570312 28.273438 1.570312 18.503906 C 1.570312 8.734375 9.335938 0.8125 18.914062 0.8125 Z M 131.085938 0.8125 " clip-rule="nonzero"/></clipPath><clipPath id="9f7ec3e471"><path d="M 14.085938 8.429688 L 21 8.429688 L 21 28.414062 L 14.085938 28.414062 Z M 14.085938 8.429688 " clip-rule="nonzero"/></clipPath><clipPath id="069bbf02a5"><path d="M 127 7.632812 L 133.773438 7.632812 L 133.773438 27.617188 L 127 27.617188 Z M 127 7.632812 " clip-rule="nonzero"/></clipPath></defs><g clip-path="url(#b2ffeb463a)"><g clip-path="url(#54f487b1ac)"><path fill="#21d19f" d="M 1.570312 0.8125 L 148.472656 0.8125 L 148.472656 36.191406 L 1.570312 36.191406 Z M 1.570312 0.8125 " fill-opacity="1" fill-rule="nonzero"/></g></g><g fill="#03120e" fill-opacity="1"><g transform="translate(22.198203, 23.325133)"><g><path d="M 3.121094 -7.949219 L 3.121094 -9.222656 L 1.476562 -9.222656 L 1.476562 0 L 3.121094 0 L 3.121094 -4.929688 C 3.121094 -6.707031 4.210938 -7.699219 5.652344 -7.699219 C 7.160156 -7.699219 7.648438 -6.375 7.648438 -5.097656 L 7.648438 0 L 9.292969 0 L 9.292969 -5.117188 C 9.292969 -6.589844 10.097656 -7.699219 11.707031 -7.699219 C 13.28125 -7.699219 13.601562 -6.421875 13.601562 -5.148438 L 13.601562 0 L 15.246094 0 L 15.246094 -5.164062 C 15.246094 -7.464844 14.15625 -9.222656 11.65625 -9.222656 C 10.332031 -9.207031 9.308594 -8.652344 8.753906 -7.648438 C 8.082031 -8.921875 6.941406 -9.222656 5.667969 -9.222656 C 4.613281 -9.222656 3.738281 -8.855469 3.121094 -7.949219 Z M 3.121094 -7.949219 "/></g></g></g><g fill="#03120e" fill-opacity="1"><g transform="translate(38.413271, 23.325133)"><g><path d="M 10.683594 0 L 10.683594 -9.074219 L 9.039062 -9.074219 L 9.054688 -7.867188 C 8.25 -8.957031 6.894531 -9.222656 5.769531 -9.222656 C 2.699219 -9.222656 0.921875 -7.027344 0.921875 -4.578125 C 0.921875 -2.078125 2.632812 0.152344 5.804688 0.152344 C 6.925781 0.132812 8.386719 -0.234375 9.039062 -1.222656 L 9.039062 0 Z M 9.039062 -4.546875 C 9.039062 -2.363281 7.277344 -1.308594 5.769531 -1.308594 C 3.757812 -1.308594 2.566406 -2.867188 2.566406 -4.578125 C 2.566406 -6.375 3.773438 -7.78125 5.769531 -7.78125 C 7.3125 -7.78125 9.039062 -6.707031 9.039062 -4.546875 Z M 9.039062 -4.546875 "/></g></g></g><g fill="#03120e" fill-opacity="1"><g transform="translate(49.882828, 23.325133)"><g><path d="M 3.40625 -9.074219 L 3.40625 -11.085938 L 1.761719 -10.765625 L 1.761719 -9.074219 L 0.402344 -9.074219 L 0.402344 -7.765625 L 1.761719 -7.765625 L 1.761719 -2.667969 C 1.761719 -0.554688 2.917969 0.0507812 4.695312 0.0507812 C 4.929688 0.0507812 5.183594 0.0351562 5.449219 0.015625 L 5.449219 -1.359375 C 5.199219 -1.339844 4.964844 -1.324219 4.761719 -1.324219 C 3.941406 -1.324219 3.40625 -1.578125 3.40625 -2.648438 L 3.40625 -7.765625 L 5.398438 -7.765625 L 5.398438 -9.074219 Z M 3.40625 -9.074219 "/></g></g></g><g fill="#03120e" fill-opacity="1"><g transform="translate(55.349241, 23.325133)"><g><path d="M 3.40625 -9.074219 L 3.40625 -11.085938 L 1.761719 -10.765625 L 1.761719 -9.074219 L 0.402344 -9.074219 L 0.402344 -7.765625 L 1.761719 -7.765625 L 1.761719 -2.667969 C 1.761719 -0.554688 2.917969 0.0507812 4.695312 0.0507812 C 4.929688 0.0507812 5.183594 0.0351562 5.449219 0.015625 L 5.449219 -1.359375 C 5.199219 -1.339844 4.964844 -1.324219 4.761719 -1.324219 C 3.941406 -1.324219 3.40625 -1.578125 3.40625 -2.648438 L 3.40625 -7.765625 L 5.398438 -7.765625 L 5.398438 -9.074219 Z M 3.40625 -9.074219 "/></g></g></g><g fill="#03120e" fill-opacity="1"><g transform="translate(60.815653, 23.325133)"><g><path d="M 1.675781 -2.011719 C 1.125 -2.011719 0.671875 -1.59375 0.671875 -0.972656 C 0.671875 -0.46875 1.125 0.0507812 1.675781 0.0507812 C 2.296875 0.0507812 2.734375 -0.46875 2.734375 -0.972656 C 2.734375 -1.59375 2.296875 -2.011719 1.675781 -2.011719 Z M 1.675781 -2.011719 "/></g></g></g><g fill="#03120e" fill-opacity="1"><g transform="translate(64.018315, 23.325133)"><g><path d="M 1.242188 2.648438 L 2.882812 2.648438 L 2.882812 -1.191406 C 3.691406 -0.117188 4.8125 0.152344 5.9375 0.152344 C 9.007812 0.152344 10.617188 -2.046875 10.617188 -4.511719 C 10.617188 -6.992188 9.105469 -9.222656 5.953125 -9.222656 C 4.8125 -9.222656 3.539062 -8.855469 2.882812 -7.867188 L 2.882812 -9.074219 L 1.242188 -9.074219 Z M 2.882812 -4.546875 C 2.882812 -6.707031 4.425781 -7.78125 5.953125 -7.78125 C 7.949219 -7.78125 8.972656 -6.1875 8.972656 -4.546875 C 8.972656 -2.917969 7.949219 -1.308594 5.9375 -1.308594 C 4.410156 -1.308594 2.882812 -2.382812 2.882812 -4.546875 Z M 2.882812 -4.546875 "/></g></g></g><g fill="#03120e" fill-opacity="1"><g transform="translate(75.269885, 23.325133)"><g><path d="M 10.683594 0 L 10.683594 -9.074219 L 9.039062 -9.074219 L 9.054688 -7.867188 C 8.25 -8.957031 6.894531 -9.222656 5.769531 -9.222656 C 2.699219 -9.222656 0.921875 -7.027344 0.921875 -4.578125 C 0.921875 -2.078125 2.632812 0.152344 5.804688 0.152344 C 6.925781 0.132812 8.386719 -0.234375 9.039062 -1.222656 L 9.039062 0 Z M 9.039062 -4.546875 C 9.039062 -2.363281 7.277344 -1.308594 5.769531 -1.308594 C 3.757812 -1.308594 2.566406 -2.867188 2.566406 -4.578125 C 2.566406 -6.375 3.773438 -7.78125 5.769531 -7.78125 C 7.3125 -7.78125 9.039062 -6.707031 9.039062 -4.546875 Z M 9.039062 -4.546875 "/></g></g></g><g fill="#03120e" fill-opacity="1"><g transform="translate(86.739445, 23.325133)"><g><path d="M 2.835938 -7.949219 L 2.835938 -11.738281 L 1.207031 -11.738281 L 1.207031 0 L 2.835938 0 L 2.835938 -4.929688 C 2.835938 -6.507812 3.773438 -7.75 5.5 -7.75 C 7.480469 -7.75 7.933594 -6.574219 7.933594 -4.863281 L 7.933594 0 L 9.578125 0 L 9.578125 -4.878906 C 9.578125 -7.480469 8.386719 -9.207031 5.617188 -9.207031 C 4.476562 -9.207031 3.523438 -8.921875 2.835938 -7.949219 Z M 2.835938 -7.949219 "/></g></g></g><g fill="#03120e" fill-opacity="1"><g transform="translate(97.303497, 23.325133)"><g><path d="M 7.949219 -1.191406 L 7.949219 0 L 9.507812 0 L 9.507812 -9.15625 L 7.867188 -9.15625 L 7.867188 -4.140625 C 7.867188 -2.550781 6.925781 -1.324219 5.199219 -1.324219 C 3.21875 -1.324219 2.785156 -2.5 2.785156 -4.191406 L 2.785156 -9.15625 L 1.140625 -9.15625 L 1.140625 -4.191406 C 1.140625 -1.59375 2.332031 0.132812 5.082031 0.132812 C 6.253906 0.132812 7.277344 -0.203125 7.949219 -1.191406 Z M 7.949219 -1.191406 "/></g></g></g><g fill="#03120e" fill-opacity="1"><g transform="translate(107.800477, 23.325133)"><g><path d="M 3.40625 -9.074219 L 3.40625 -11.085938 L 1.761719 -10.765625 L 1.761719 -9.074219 L 0.402344 -9.074219 L 0.402344 -7.765625 L 1.761719 -7.765625 L 1.761719 -2.667969 C 1.761719 -0.554688 2.917969 0.0507812 4.695312 0.0507812 C 4.929688 0.0507812 5.183594 0.0351562 5.449219 0.015625 L 5.449219 -1.359375 C 5.199219 -1.339844 4.964844 -1.324219 4.761719 -1.324219 C 3.941406 -1.324219 3.40625 -1.578125 3.40625 -2.648438 L 3.40625 -7.765625 L 5.398438 -7.765625 L 5.398438 -9.074219 Z M 3.40625 -9.074219 "/></g></g></g><g fill="#03120e" fill-opacity="1"><g transform="translate(113.266892, 23.325133)"><g><path d="M 10.683594 0 L 10.683594 -9.074219 L 9.039062 -9.074219 L 9.054688 -7.867188 C 8.25 -8.957031 6.894531 -9.222656 5.769531 -9.222656 C 2.699219 -9.222656 0.921875 -7.027344 0.921875 -4.578125 C 0.921875 -2.078125 2.632812 0.152344 5.804688 0.152344 C 6.925781 0.132812 8.386719 -0.234375 9.039062 -1.222656 L 9.039062 0 Z M 9.039062 -4.546875 C 9.039062 -2.363281 7.277344 -1.308594 5.769531 -1.308594 C 3.757812 -1.308594 2.566406 -2.867188 2.566406 -4.578125 C 2.566406 -6.375 3.773438 -7.78125 5.769531 -7.78125 C 7.3125 -7.78125 9.039062 -6.707031 9.039062 -4.546875 Z M 9.039062 -4.546875 "/></g></g></g><g clip-path="url(#9f7ec3e471)"><path fill="#03120e" d="M 19.558594 10.667969 L 20.117188 10.667969 L 20.117188 8.429688 L 19.558594 8.429688 C 17.703125 8.429688 16.199219 9.933594 16.199219 11.789062 L 16.199219 15.703125 C 16.199219 16.058594 16.035156 16.386719 15.75 16.601562 L 14.410156 17.605469 C 14.140625 17.808594 13.976562 18.121094 13.960938 18.457031 C 13.949219 18.792969 14.085938 19.117188 14.335938 19.339844 L 15.824219 20.660156 C 16.0625 20.871094 16.199219 21.175781 16.199219 21.496094 L 16.199219 25.21875 C 16.199219 27.070312 17.703125 28.574219 19.558594 28.574219 L 20.117188 28.574219 L 20.117188 26.335938 L 19.558594 26.335938 C 18.9375 26.335938 18.4375 25.835938 18.4375 25.21875 L 18.4375 21.496094 C 18.4375 20.539062 18.027344 19.625 17.308594 18.988281 L 16.847656 18.574219 L 17.09375 18.390625 C 17.941406 17.757812 18.4375 16.761719 18.4375 15.703125 L 18.4375 11.789062 C 18.4375 11.167969 18.9375 10.667969 19.558594 10.667969 Z M 19.558594 10.667969 " fill-opacity="1" fill-rule="evenodd"/></g><g clip-path="url(#069bbf02a5)"><path fill="#03120e" d="M 128.300781 9.871094 L 127.742188 9.871094 L 127.742188 7.632812 L 128.300781 7.632812 C 130.15625 7.632812 131.660156 9.136719 131.660156 10.992188 L 131.660156 14.90625 C 131.660156 15.261719 131.824219 15.59375 132.105469 15.804688 L 133.449219 16.8125 C 133.71875 17.011719 133.882812 17.324219 133.898438 17.660156 C 133.910156 17.996094 133.773438 18.320312 133.523438 18.542969 L 132.035156 19.863281 C 131.796875 20.078125 131.660156 20.382812 131.660156 20.699219 L 131.660156 24.421875 C 131.660156 26.277344 130.15625 27.777344 128.300781 27.777344 L 127.742188 27.777344 L 127.742188 25.539062 L 128.300781 25.539062 C 128.921875 25.539062 129.421875 25.039062 129.421875 24.421875 L 129.421875 20.699219 C 129.421875 19.742188 129.832031 18.828125 130.546875 18.191406 L 131.011719 17.78125 L 130.765625 17.59375 C 129.917969 16.960938 129.421875 15.964844 129.421875 14.90625 L 129.421875 10.992188 C 129.421875 10.371094 128.921875 9.871094 128.300781 9.871094 Z M 128.300781 9.871094 " fill-opacity="1" fill-rule="evenodd"/></g></svg>