<svg xmlns="http://www.w3.org/2000/svg" xmlns:xlink="http://www.w3.org/1999/xlink" width="75" zoomAndPan="magnify" viewBox="0 0 56.25 56.249997" height="75" preserveAspectRatio="xMidYMid meet" version="1.0"><defs><clipPath id="9c6309ab1c"><path d="M 1.777344 1.777344 L 53.585938 1.777344 L 53.585938 53.585938 L 1.777344 53.585938 Z M 1.777344 1.777344 " clip-rule="nonzero"/></clipPath><clipPath id="264fbff6f0"><path d="M 20.910156 30.667969 L 34.972656 30.667969 L 34.972656 41.769531 L 20.910156 41.769531 Z M 20.910156 30.667969 " clip-rule="nonzero"/></clipPath></defs><g clip-path="url(#9c6309ab1c)"><path fill="#000000" d="M 25.628906 44.59375 C 25.125 44.835938 24.605469 45.027344 24.070312 45.15625 C 24.070312 45.15625 24.066406 45.15625 24.066406 45.15625 C 21.226562 45.847656 18.054688 44.921875 16.105469 42.386719 C 13.851562 39.453125 14.269531 35.328125 16.9375 32.742188 L 16.953125 32.730469 L 22.925781 26.9375 C 25.550781 24.390625 29.808594 24.390625 32.433594 26.9375 L 38.410156 32.730469 L 38.425781 32.742188 C 41.09375 35.328125 41.511719 39.453125 39.257812 42.386719 C 37.304688 44.921875 34.136719 45.847656 31.292969 45.15625 C 30.757812 45.027344 30.234375 44.835938 29.734375 44.59375 C 28.386719 44.25 26.976562 44.25 25.628906 44.59375 Z M 9.652344 27.761719 C 7.921875 25 8.117188 21.863281 10.101562 20.617188 C 12.089844 19.367188 15 20.554688 16.734375 23.316406 C 17.53125 24.582031 17.945312 25.992188 17.90625 27.289062 C 17.859375 28.707031 17.285156 29.835938 16.285156 30.460938 C 15.753906 30.796875 15.152344 30.957031 14.523438 30.957031 C 12.820312 30.957031 10.921875 29.78125 9.652344 27.761719 Z M 19.871094 10.226562 C 22.53125 9.644531 25.265625 12.113281 26.085938 15.855469 C 26.902344 19.597656 25.457031 22.984375 22.792969 23.566406 C 22.53125 23.625 22.269531 23.652344 22.007812 23.652344 C 19.613281 23.652344 17.320312 21.308594 16.582031 17.9375 C 15.761719 14.195312 17.207031 10.808594 19.871094 10.226562 Z M 29.277344 15.699219 C 29.65625 13.972656 30.472656 12.441406 31.578125 11.386719 C 32.769531 10.246094 34.160156 9.777344 35.488281 10.066406 C 36.820312 10.359375 37.886719 11.367188 38.492188 12.898438 C 39.054688 14.320312 39.15625 16.054688 38.777344 17.777344 C 38.039062 21.152344 35.75 23.496094 33.351562 23.496094 C 33.089844 23.496094 32.828125 23.46875 32.566406 23.410156 C 29.902344 22.828125 28.457031 19.4375 29.277344 15.699219 Z M 45.257812 20.457031 C 47.246094 21.703125 47.441406 24.84375 45.707031 27.605469 C 44.914062 28.871094 43.820312 29.855469 42.636719 30.382812 C 42.015625 30.660156 41.402344 30.796875 40.824219 30.796875 C 40.191406 30.796875 39.597656 30.632812 39.074219 30.304688 C 37.089844 29.058594 36.894531 25.917969 38.625 23.160156 C 40.359375 20.398438 43.273438 19.210938 45.257812 20.457031 Z M 53.585938 27.679688 C 53.585938 13.375 41.988281 1.777344 27.679688 1.777344 C 13.375 1.777344 1.777344 13.375 1.777344 27.679688 C 1.777344 41.988281 13.375 53.585938 27.679688 53.585938 C 41.988281 53.585938 53.585938 41.988281 53.585938 27.679688 " fill-opacity="1" fill-rule="nonzero"/></g><g clip-path="url(#264fbff6f0)"><path fill="#000000" d="M 21.167969 36.648438 C 21.046875 36.53125 20.984375 36.386719 20.984375 36.21875 C 20.984375 36.050781 21.046875 35.90625 21.167969 35.785156 L 23.699219 33.347656 C 23.820312 33.222656 23.972656 33.160156 24.148438 33.160156 C 24.324219 33.160156 24.476562 33.21875 24.601562 33.339844 C 24.726562 33.460938 24.789062 33.605469 24.785156 33.777344 C 24.785156 33.945312 24.71875 34.089844 24.59375 34.210938 L 22.511719 36.21875 L 24.59375 38.226562 C 24.71875 38.34375 24.785156 38.488281 24.785156 38.660156 C 24.789062 38.832031 24.726562 38.976562 24.601562 39.097656 C 24.476562 39.21875 24.324219 39.277344 24.148438 39.273438 C 23.972656 39.273438 23.820312 39.210938 23.699219 39.089844 Z M 32.179688 33.347656 C 32.058594 33.222656 31.910156 33.160156 31.730469 33.160156 C 31.554688 33.160156 31.402344 33.21875 31.277344 33.339844 C 31.152344 33.460938 31.09375 33.605469 31.09375 33.777344 C 31.09375 33.945312 31.160156 34.089844 31.285156 34.210938 L 33.371094 36.21875 L 31.285156 38.226562 C 31.160156 38.34375 31.09375 38.488281 31.09375 38.660156 C 31.09375 38.832031 31.152344 38.976562 31.277344 39.097656 C 31.402344 39.21875 31.554688 39.277344 31.730469 39.273438 C 31.910156 39.273438 32.058594 39.210938 32.179688 39.089844 L 34.710938 36.648438 C 34.835938 36.53125 34.894531 36.386719 34.894531 36.21875 C 34.894531 36.050781 34.835938 35.90625 34.710938 35.785156 Z M 28.589844 31.191406 L 26.0625 40.949219 C 26.023438 41.113281 26.046875 41.265625 26.136719 41.40625 C 26.226562 41.550781 26.355469 41.640625 26.523438 41.679688 C 26.691406 41.722656 26.851562 41.699219 27 41.613281 C 27.148438 41.53125 27.246094 41.40625 27.289062 41.246094 L 29.816406 31.484375 C 29.863281 31.320312 29.839844 31.167969 29.75 31.019531 C 29.660156 30.875 29.53125 30.777344 29.359375 30.738281 C 29.1875 30.695312 29.027344 30.71875 28.878906 30.808594 C 28.726562 30.898438 28.632812 31.023438 28.589844 31.191406 Z M 28.589844 31.191406 " fill-opacity="1" fill-rule="nonzero"/></g></svg>