<svg xmlns="http://www.w3.org/2000/svg" xmlns:xlink="http://www.w3.org/1999/xlink" width="200" zoomAndPan="magnify" viewBox="0 0 150 37.5" height="50" preserveAspectRatio="xMidYMid meet" version="1.0"><defs><g/><clipPath id="37ffac1222"><path d="M 3.019531 3.789062 L 147 3.789062 L 147 33.304688 L 3.019531 33.304688 Z M 3.019531 3.789062 " clip-rule="nonzero"/></clipPath><clipPath id="f29c75b54b"><path d="M 4.761719 3.789062 L 145.238281 3.789062 C 145.699219 3.789062 146.140625 3.972656 146.46875 4.300781 C 146.796875 4.628906 146.980469 5.070312 146.980469 5.535156 L 146.980469 31.5625 C 146.980469 32.023438 146.796875 32.46875 146.46875 32.796875 C 146.140625 33.121094 145.699219 33.304688 145.238281 33.304688 L 4.761719 33.304688 C 4.300781 33.304688 3.859375 33.121094 3.53125 32.796875 C 3.203125 32.46875 3.019531 32.023438 3.019531 31.5625 L 3.019531 5.535156 C 3.019531 5.070312 3.203125 4.628906 3.53125 4.300781 C 3.859375 3.972656 4.300781 3.789062 4.761719 3.789062 Z M 4.761719 3.789062 " clip-rule="nonzero"/></clipPath><clipPath id="ec5a1b00ba"><path d="M 9.648438 8.476562 L 16 8.476562 L 16 28.457031 L 9.648438 28.457031 Z M 9.648438 8.476562 " clip-rule="nonzero"/></clipPath><clipPath id="5ef210d2ea"><path d="M 134 8.359375 L 140.285156 8.359375 L 140.285156 28.34375 L 134 28.34375 Z M 134 8.359375 " clip-rule="nonzero"/></clipPath></defs><g clip-path="url(#37ffac1222)"><g clip-path="url(#f29c75b54b)"><path fill="#21d19f" d="M 3.019531 3.789062 L 146.953125 3.789062 L 146.953125 33.304688 L 3.019531 33.304688 Z M 3.019531 3.789062 " fill-opacity="1" fill-rule="nonzero"/></g></g><g clip-path="url(#ec5a1b00ba)"><path fill="#03120e" d="M 15.117188 10.714844 L 15.675781 10.714844 L 15.675781 8.476562 L 15.117188 8.476562 C 13.261719 8.476562 11.757812 9.976562 11.757812 11.832031 L 11.757812 15.75 C 11.757812 16.101562 11.59375 16.433594 11.3125 16.644531 L 9.96875 17.652344 C 9.699219 17.855469 9.535156 18.164062 9.519531 18.5 C 9.507812 18.835938 9.644531 19.160156 9.894531 19.382812 L 11.382812 20.707031 C 11.621094 20.917969 11.757812 21.222656 11.757812 21.542969 L 11.757812 25.261719 C 11.757812 27.117188 13.261719 28.621094 15.117188 28.621094 L 15.675781 28.621094 L 15.675781 26.382812 L 15.117188 26.382812 C 14.496094 26.382812 13.996094 25.878906 13.996094 25.261719 L 13.996094 21.542969 C 13.996094 20.582031 13.585938 19.667969 12.871094 19.03125 L 12.40625 18.621094 L 12.652344 18.433594 C 13.5 17.800781 13.996094 16.804688 13.996094 15.75 L 13.996094 11.832031 C 13.996094 11.214844 14.496094 10.714844 15.117188 10.714844 Z M 15.117188 10.714844 " fill-opacity="1" fill-rule="evenodd"/></g><g fill="#03120e" fill-opacity="1"><g transform="translate(23.086361, 23.917239)"><g><path d="M 3.121094 -7.949219 L 3.121094 -9.222656 L 1.476562 -9.222656 L 1.476562 0 L 3.121094 0 L 3.121094 -4.929688 C 3.121094 -6.707031 4.210938 -7.699219 5.652344 -7.699219 C 7.160156 -7.699219 7.648438 -6.375 7.648438 -5.097656 L 7.648438 0 L 9.292969 0 L 9.292969 -5.117188 C 9.292969 -6.589844 10.097656 -7.699219 11.707031 -7.699219 C 13.28125 -7.699219 13.601562 -6.421875 13.601562 -5.148438 L 13.601562 0 L 15.246094 0 L 15.246094 -5.164062 C 15.246094 -7.464844 14.15625 -9.222656 11.65625 -9.222656 C 10.332031 -9.207031 9.308594 -8.652344 8.753906 -7.648438 C 8.082031 -8.921875 6.941406 -9.222656 5.667969 -9.222656 C 4.613281 -9.222656 3.738281 -8.855469 3.121094 -7.949219 Z M 3.121094 -7.949219 "/></g></g></g><g fill="#03120e" fill-opacity="1"><g transform="translate(39.301429, 23.917239)"><g><path d="M 10.683594 0 L 10.683594 -9.074219 L 9.039062 -9.074219 L 9.054688 -7.867188 C 8.25 -8.957031 6.894531 -9.222656 5.769531 -9.222656 C 2.699219 -9.222656 0.921875 -7.027344 0.921875 -4.578125 C 0.921875 -2.078125 2.632812 0.152344 5.804688 0.152344 C 6.925781 0.132812 8.386719 -0.234375 9.039062 -1.222656 L 9.039062 0 Z M 9.039062 -4.546875 C 9.039062 -2.363281 7.277344 -1.308594 5.769531 -1.308594 C 3.757812 -1.308594 2.566406 -2.867188 2.566406 -4.578125 C 2.566406 -6.375 3.773438 -7.78125 5.769531 -7.78125 C 7.3125 -7.78125 9.039062 -6.707031 9.039062 -4.546875 Z M 9.039062 -4.546875 "/></g></g></g><g fill="#03120e" fill-opacity="1"><g transform="translate(50.770986, 23.917239)"><g><path d="M 3.40625 -9.074219 L 3.40625 -11.085938 L 1.761719 -10.765625 L 1.761719 -9.074219 L 0.402344 -9.074219 L 0.402344 -7.765625 L 1.761719 -7.765625 L 1.761719 -2.667969 C 1.761719 -0.554688 2.917969 0.0507812 4.695312 0.0507812 C 4.929688 0.0507812 5.183594 0.0351562 5.449219 0.015625 L 5.449219 -1.359375 C 5.199219 -1.339844 4.964844 -1.324219 4.761719 -1.324219 C 3.941406 -1.324219 3.40625 -1.578125 3.40625 -2.648438 L 3.40625 -7.765625 L 5.398438 -7.765625 L 5.398438 -9.074219 Z M 3.40625 -9.074219 "/></g></g></g><g fill="#03120e" fill-opacity="1"><g transform="translate(56.237399, 23.917239)"><g><path d="M 3.40625 -9.074219 L 3.40625 -11.085938 L 1.761719 -10.765625 L 1.761719 -9.074219 L 0.402344 -9.074219 L 0.402344 -7.765625 L 1.761719 -7.765625 L 1.761719 -2.667969 C 1.761719 -0.554688 2.917969 0.0507812 4.695312 0.0507812 C 4.929688 0.0507812 5.183594 0.0351562 5.449219 0.015625 L 5.449219 -1.359375 C 5.199219 -1.339844 4.964844 -1.324219 4.761719 -1.324219 C 3.941406 -1.324219 3.40625 -1.578125 3.40625 -2.648438 L 3.40625 -7.765625 L 5.398438 -7.765625 L 5.398438 -9.074219 Z M 3.40625 -9.074219 "/></g></g></g><g fill="#03120e" fill-opacity="1"><g transform="translate(61.703811, 23.917239)"><g><path d="M 1.675781 -2.011719 C 1.125 -2.011719 0.671875 -1.59375 0.671875 -0.972656 C 0.671875 -0.46875 1.125 0.0507812 1.675781 0.0507812 C 2.296875 0.0507812 2.734375 -0.46875 2.734375 -0.972656 C 2.734375 -1.59375 2.296875 -2.011719 1.675781 -2.011719 Z M 1.675781 -2.011719 "/></g></g></g><g fill="#03120e" fill-opacity="1"><g transform="translate(64.906473, 23.917239)"><g><path d="M 1.242188 2.648438 L 2.882812 2.648438 L 2.882812 -1.191406 C 3.691406 -0.117188 4.8125 0.152344 5.9375 0.152344 C 9.007812 0.152344 10.617188 -2.046875 10.617188 -4.511719 C 10.617188 -6.992188 9.105469 -9.222656 5.953125 -9.222656 C 4.8125 -9.222656 3.539062 -8.855469 2.882812 -7.867188 L 2.882812 -9.074219 L 1.242188 -9.074219 Z M 2.882812 -4.546875 C 2.882812 -6.707031 4.425781 -7.78125 5.953125 -7.78125 C 7.949219 -7.78125 8.972656 -6.1875 8.972656 -4.546875 C 8.972656 -2.917969 7.949219 -1.308594 5.9375 -1.308594 C 4.410156 -1.308594 2.882812 -2.382812 2.882812 -4.546875 Z M 2.882812 -4.546875 "/></g></g></g><g fill="#03120e" fill-opacity="1"><g transform="translate(76.158043, 23.917239)"><g><path d="M 10.683594 0 L 10.683594 -9.074219 L 9.039062 -9.074219 L 9.054688 -7.867188 C 8.25 -8.957031 6.894531 -9.222656 5.769531 -9.222656 C 2.699219 -9.222656 0.921875 -7.027344 0.921875 -4.578125 C 0.921875 -2.078125 2.632812 0.152344 5.804688 0.152344 C 6.925781 0.132812 8.386719 -0.234375 9.039062 -1.222656 L 9.039062 0 Z M 9.039062 -4.546875 C 9.039062 -2.363281 7.277344 -1.308594 5.769531 -1.308594 C 3.757812 -1.308594 2.566406 -2.867188 2.566406 -4.578125 C 2.566406 -6.375 3.773438 -7.78125 5.769531 -7.78125 C 7.3125 -7.78125 9.039062 -6.707031 9.039062 -4.546875 Z M 9.039062 -4.546875 "/></g></g></g><g fill="#03120e" fill-opacity="1"><g transform="translate(87.627603, 23.917239)"><g><path d="M 2.835938 -7.949219 L 2.835938 -11.738281 L 1.207031 -11.738281 L 1.207031 0 L 2.835938 0 L 2.835938 -4.929688 C 2.835938 -6.507812 3.773438 -7.75 5.5 -7.75 C 7.480469 -7.75 7.933594 -6.574219 7.933594 -4.863281 L 7.933594 0 L 9.578125 0 L 9.578125 -4.878906 C 9.578125 -7.480469 8.386719 -9.207031 5.617188 -9.207031 C 4.476562 -9.207031 3.523438 -8.921875 2.835938 -7.949219 Z M 2.835938 -7.949219 "/></g></g></g><g fill="#03120e" fill-opacity="1"><g transform="translate(98.191655, 23.917239)"><g><path d="M 7.949219 -1.191406 L 7.949219 0 L 9.507812 0 L 9.507812 -9.15625 L 7.867188 -9.15625 L 7.867188 -4.140625 C 7.867188 -2.550781 6.925781 -1.324219 5.199219 -1.324219 C 3.21875 -1.324219 2.785156 -2.5 2.785156 -4.191406 L 2.785156 -9.15625 L 1.140625 -9.15625 L 1.140625 -4.191406 C 1.140625 -1.59375 2.332031 0.132812 5.082031 0.132812 C 6.253906 0.132812 7.277344 -0.203125 7.949219 -1.191406 Z M 7.949219 -1.191406 "/></g></g></g><g fill="#03120e" fill-opacity="1"><g transform="translate(108.688635, 23.917239)"><g><path d="M 3.40625 -9.074219 L 3.40625 -11.085938 L 1.761719 -10.765625 L 1.761719 -9.074219 L 0.402344 -9.074219 L 0.402344 -7.765625 L 1.761719 -7.765625 L 1.761719 -2.667969 C 1.761719 -0.554688 2.917969 0.0507812 4.695312 0.0507812 C 4.929688 0.0507812 5.183594 0.0351562 5.449219 0.015625 L 5.449219 -1.359375 C 5.199219 -1.339844 4.964844 -1.324219 4.761719 -1.324219 C 3.941406 -1.324219 3.40625 -1.578125 3.40625 -2.648438 L 3.40625 -7.765625 L 5.398438 -7.765625 L 5.398438 -9.074219 Z M 3.40625 -9.074219 "/></g></g></g><g fill="#03120e" fill-opacity="1"><g transform="translate(114.15505, 23.917239)"><g><path d="M 10.683594 0 L 10.683594 -9.074219 L 9.039062 -9.074219 L 9.054688 -7.867188 C 8.25 -8.957031 6.894531 -9.222656 5.769531 -9.222656 C 2.699219 -9.222656 0.921875 -7.027344 0.921875 -4.578125 C 0.921875 -2.078125 2.632812 0.152344 5.804688 0.152344 C 6.925781 0.132812 8.386719 -0.234375 9.039062 -1.222656 L 9.039062 0 Z M 9.039062 -4.546875 C 9.039062 -2.363281 7.277344 -1.308594 5.769531 -1.308594 C 3.757812 -1.308594 2.566406 -2.867188 2.566406 -4.578125 C 2.566406 -6.375 3.773438 -7.78125 5.769531 -7.78125 C 7.3125 -7.78125 9.039062 -6.707031 9.039062 -4.546875 Z M 9.039062 -4.546875 "/></g></g></g><g clip-path="url(#5ef210d2ea)"><path fill="#03120e" d="M 134.816406 10.597656 L 134.253906 10.597656 L 134.253906 8.359375 L 134.816406 8.359375 C 136.667969 8.359375 138.171875 9.863281 138.171875 11.71875 L 138.171875 15.632812 C 138.171875 15.988281 138.339844 16.320312 138.621094 16.53125 L 139.964844 17.535156 C 140.230469 17.738281 140.394531 18.050781 140.410156 18.386719 C 140.425781 18.722656 140.285156 19.046875 140.035156 19.269531 L 138.546875 20.589844 C 138.308594 20.804688 138.171875 21.105469 138.171875 21.425781 L 138.171875 25.148438 C 138.171875 27 136.667969 28.503906 134.816406 28.503906 L 134.253906 28.503906 L 134.253906 26.265625 L 134.816406 26.265625 C 135.433594 26.265625 135.933594 25.765625 135.933594 25.148438 L 135.933594 21.425781 C 135.933594 20.46875 136.34375 19.554688 137.0625 18.917969 L 137.523438 18.503906 L 137.277344 18.320312 C 136.433594 17.6875 135.933594 16.691406 135.933594 15.632812 L 135.933594 11.71875 C 135.933594 11.097656 135.433594 10.597656 134.816406 10.597656 Z M 134.816406 10.597656 " fill-opacity="1" fill-rule="evenodd"/></g></svg>