<svg xmlns="http://www.w3.org/2000/svg" xmlns:xlink="http://www.w3.org/1999/xlink" width="125" zoomAndPan="magnify" viewBox="0 0 93.75 30.000001" height="40" preserveAspectRatio="xMidYMid meet" version="1.0"><defs><g/><clipPath id="990e5befdc"><path d="M 3.328125 4.359375 L 90.203125 4.359375 L 90.203125 24.671875 L 3.328125 24.671875 Z M 3.328125 4.359375 " clip-rule="nonzero"/></clipPath><clipPath id="f5f09659b3"><path d="M 4.878906 4.359375 L 88.628906 4.359375 C 89.042969 4.359375 89.433594 4.523438 89.726562 4.816406 C 90.015625 5.105469 90.179688 5.5 90.179688 5.910156 L 90.179688 23.121094 C 90.179688 23.535156 90.015625 23.925781 89.726562 24.21875 C 89.433594 24.507812 89.042969 24.671875 88.628906 24.671875 L 4.878906 24.671875 C 4.464844 24.671875 4.074219 24.507812 3.78125 24.21875 C 3.492188 23.925781 3.328125 23.535156 3.328125 23.121094 L 3.328125 5.910156 C 3.328125 5.5 3.492188 5.105469 3.78125 4.816406 C 4.074219 4.523438 4.464844 4.359375 4.878906 4.359375 Z M 4.878906 4.359375 " clip-rule="nonzero"/></clipPath><clipPath id="aba686e191"><path d="M 82 7.273438 L 86.703125 7.273438 L 86.703125 21.789062 L 82 21.789062 Z M 82 7.273438 " clip-rule="nonzero"/></clipPath><clipPath id="014bc81c9f"><path d="M 6.398438 7.273438 L 11 7.273438 L 11 21.789062 L 6.398438 21.789062 Z M 6.398438 7.273438 " clip-rule="nonzero"/></clipPath></defs><g clip-path="url(#990e5befdc)"><g clip-path="url(#f5f09659b3)"><path fill="#25d788" d="M 3.328125 4.359375 L 90.203125 4.359375 L 90.203125 24.671875 L 3.328125 24.671875 Z M 3.328125 4.359375 " fill-opacity="1" fill-rule="nonzero"/></g></g><g clip-path="url(#aba686e191)"><path fill="#14213d" d="M 82.769531 8.886719 L 82.367188 8.886719 L 82.367188 7.277344 L 82.769531 7.277344 C 84.101562 7.277344 85.183594 8.355469 85.183594 9.6875 L 85.183594 12.503906 C 85.183594 12.757812 85.300781 12.996094 85.503906 13.148438 L 86.46875 13.871094 C 86.664062 14.015625 86.78125 14.242188 86.789062 14.480469 C 86.800781 14.722656 86.703125 14.957031 86.519531 15.117188 L 85.453125 16.066406 C 85.28125 16.21875 85.183594 16.4375 85.183594 16.667969 L 85.183594 19.34375 C 85.183594 20.675781 84.101562 21.753906 82.769531 21.753906 L 82.367188 21.753906 L 82.367188 20.144531 L 82.769531 20.144531 C 83.214844 20.144531 83.574219 19.785156 83.574219 19.34375 L 83.574219 16.667969 C 83.574219 15.976562 83.867188 15.320312 84.382812 14.863281 L 84.714844 14.566406 L 84.539062 14.433594 C 83.929688 13.980469 83.574219 13.265625 83.574219 12.503906 L 83.574219 9.6875 C 83.574219 9.246094 83.214844 8.886719 82.769531 8.886719 Z M 82.769531 8.886719 " fill-opacity="1" fill-rule="evenodd"/></g><g clip-path="url(#014bc81c9f)"><path fill="#14213d" d="M 10.425781 8.886719 L 10.828125 8.886719 L 10.828125 7.277344 L 10.425781 7.277344 C 9.09375 7.277344 8.011719 8.355469 8.011719 9.6875 L 8.011719 12.503906 C 8.011719 12.757812 7.890625 12.996094 7.691406 13.148438 L 6.722656 13.871094 C 6.53125 14.015625 6.414062 14.242188 6.402344 14.480469 C 6.394531 14.722656 6.492188 14.957031 6.671875 15.117188 L 7.742188 16.066406 C 7.914062 16.21875 8.011719 16.4375 8.011719 16.667969 L 8.011719 19.34375 C 8.011719 20.675781 9.09375 21.753906 10.425781 21.753906 L 10.828125 21.753906 L 10.828125 20.144531 L 10.425781 20.144531 C 9.980469 20.144531 9.621094 19.785156 9.621094 19.34375 L 9.621094 16.667969 C 9.621094 15.976562 9.324219 15.320312 8.808594 14.863281 L 8.476562 14.566406 L 8.65625 14.433594 C 9.261719 13.980469 9.621094 13.265625 9.621094 12.503906 L 9.621094 9.6875 C 9.621094 9.246094 9.980469 8.886719 10.425781 8.886719 Z M 10.425781 8.886719 " fill-opacity="1" fill-rule="evenodd"/></g><g fill="#14213d" fill-opacity="1"><g transform="translate(13.908001, 18.145163)"><g><path d="M 1.980469 -5.042969 L 1.980469 -5.851562 L 0.9375 -5.851562 L 0.9375 0 L 1.980469 0 L 1.980469 -3.128906 C 1.980469 -4.257812 2.671875 -4.882812 3.585938 -4.882812 C 4.542969 -4.882812 4.851562 -4.042969 4.851562 -3.234375 L 4.851562 0 L 5.894531 0 L 5.894531 -3.246094 C 5.894531 -4.183594 6.40625 -4.882812 7.425781 -4.882812 C 8.425781 -4.882812 8.628906 -4.074219 8.628906 -3.265625 L 8.628906 0 L 9.671875 0 L 9.671875 -3.277344 C 9.671875 -4.734375 8.980469 -5.851562 7.394531 -5.851562 C 6.554688 -5.839844 5.90625 -5.492188 5.554688 -4.851562 C 5.128906 -5.660156 4.40625 -5.851562 3.597656 -5.851562 C 2.925781 -5.851562 2.371094 -5.617188 1.980469 -5.042969 Z M 1.980469 -5.042969 "/></g></g></g><g fill="#14213d" fill-opacity="1"><g transform="translate(24.194465, 18.145163)"><g><path d="M 6.777344 0 L 6.777344 -5.757812 L 5.734375 -5.757812 L 5.746094 -4.992188 C 5.234375 -5.683594 4.375 -5.851562 3.660156 -5.851562 C 1.714844 -5.851562 0.585938 -4.457031 0.585938 -2.90625 C 0.585938 -1.320312 1.671875 0.0976562 3.679688 0.0976562 C 4.394531 0.0859375 5.320312 -0.148438 5.734375 -0.777344 L 5.734375 0 Z M 5.734375 -2.882812 C 5.734375 -1.5 4.617188 -0.828125 3.660156 -0.828125 C 2.382812 -0.828125 1.628906 -1.820312 1.628906 -2.90625 C 1.628906 -4.042969 2.394531 -4.9375 3.660156 -4.9375 C 4.640625 -4.9375 5.734375 -4.257812 5.734375 -2.882812 Z M 5.734375 -2.882812 "/></g></g></g><g fill="#14213d" fill-opacity="1"><g transform="translate(31.470475, 18.145163)"><g><path d="M 2.160156 -5.757812 L 2.160156 -7.035156 L 1.117188 -6.832031 L 1.117188 -5.757812 L 0.253906 -5.757812 L 0.253906 -4.925781 L 1.117188 -4.925781 L 1.117188 -1.691406 C 1.117188 -0.351562 1.851562 0.03125 2.980469 0.03125 C 3.128906 0.03125 3.289062 0.0195312 3.457031 0.0117188 L 3.457031 -0.863281 C 3.296875 -0.851562 3.148438 -0.839844 3.023438 -0.839844 C 2.5 -0.839844 2.160156 -1 2.160156 -1.679688 L 2.160156 -4.925781 L 3.425781 -4.925781 L 3.425781 -5.757812 Z M 2.160156 -5.757812 "/></g></g></g><g fill="#14213d" fill-opacity="1"><g transform="translate(34.938207, 18.145163)"><g><path d="M 2.160156 -5.757812 L 2.160156 -7.035156 L 1.117188 -6.832031 L 1.117188 -5.757812 L 0.253906 -5.757812 L 0.253906 -4.925781 L 1.117188 -4.925781 L 1.117188 -1.691406 C 1.117188 -0.351562 1.851562 0.03125 2.980469 0.03125 C 3.128906 0.03125 3.289062 0.0195312 3.457031 0.0117188 L 3.457031 -0.863281 C 3.296875 -0.851562 3.148438 -0.839844 3.023438 -0.839844 C 2.5 -0.839844 2.160156 -1 2.160156 -1.679688 L 2.160156 -4.925781 L 3.425781 -4.925781 L 3.425781 -5.757812 Z M 2.160156 -5.757812 "/></g></g></g><g fill="#14213d" fill-opacity="1"><g transform="translate(38.405937, 18.145163)"><g><path d="M 1.0625 -1.277344 C 0.714844 -1.277344 0.425781 -1.011719 0.425781 -0.617188 C 0.425781 -0.296875 0.714844 0.03125 1.0625 0.03125 C 1.457031 0.03125 1.734375 -0.296875 1.734375 -0.617188 C 1.734375 -1.011719 1.457031 -1.277344 1.0625 -1.277344 Z M 1.0625 -1.277344 "/></g></g></g><g fill="#14213d" fill-opacity="1"><g transform="translate(40.437594, 18.145163)"><g><path d="M 0.789062 1.679688 L 1.832031 1.679688 L 1.832031 -0.753906 C 2.339844 -0.0742188 3.054688 0.0976562 3.765625 0.0976562 C 5.714844 0.0976562 6.734375 -1.296875 6.734375 -2.863281 C 6.734375 -4.4375 5.777344 -5.851562 3.777344 -5.851562 C 3.054688 -5.851562 2.246094 -5.617188 1.832031 -4.992188 L 1.832031 -5.757812 L 0.789062 -5.757812 Z M 1.832031 -2.882812 C 1.832031 -4.257812 2.808594 -4.9375 3.777344 -4.9375 C 5.042969 -4.9375 5.691406 -3.925781 5.691406 -2.882812 C 5.691406 -1.851562 5.042969 -0.828125 3.765625 -0.828125 C 2.796875 -0.828125 1.832031 -1.511719 1.832031 -2.882812 Z M 1.832031 -2.882812 "/></g></g></g><g fill="#14213d" fill-opacity="1"><g transform="translate(47.575312, 18.145163)"><g><path d="M 6.777344 0 L 6.777344 -5.757812 L 5.734375 -5.757812 L 5.746094 -4.992188 C 5.234375 -5.683594 4.375 -5.851562 3.660156 -5.851562 C 1.714844 -5.851562 0.585938 -4.457031 0.585938 -2.90625 C 0.585938 -1.320312 1.671875 0.0976562 3.679688 0.0976562 C 4.394531 0.0859375 5.320312 -0.148438 5.734375 -0.777344 L 5.734375 0 Z M 5.734375 -2.882812 C 5.734375 -1.5 4.617188 -0.828125 3.660156 -0.828125 C 2.382812 -0.828125 1.628906 -1.820312 1.628906 -2.90625 C 1.628906 -4.042969 2.394531 -4.9375 3.660156 -4.9375 C 4.640625 -4.9375 5.734375 -4.257812 5.734375 -2.882812 Z M 5.734375 -2.882812 "/></g></g></g><g fill="#14213d" fill-opacity="1"><g transform="translate(54.851324, 18.145163)"><g><path d="M 1.796875 -5.042969 L 1.796875 -7.449219 L 0.765625 -7.449219 L 0.765625 0 L 1.796875 0 L 1.796875 -3.128906 C 1.796875 -4.128906 2.394531 -4.914062 3.488281 -4.914062 C 4.746094 -4.914062 5.03125 -4.171875 5.03125 -3.085938 L 5.03125 0 L 6.074219 0 L 6.074219 -3.097656 C 6.074219 -4.746094 5.320312 -5.839844 3.566406 -5.839844 C 2.839844 -5.839844 2.234375 -5.660156 1.796875 -5.042969 Z M 1.796875 -5.042969 "/></g></g></g><g fill="#14213d" fill-opacity="1"><g transform="translate(61.552898, 18.145163)"><g><path d="M 5.042969 -0.753906 L 5.042969 0 L 6.03125 0 L 6.03125 -5.808594 L 4.992188 -5.808594 L 4.992188 -2.628906 C 4.992188 -1.617188 4.394531 -0.839844 3.296875 -0.839844 C 2.042969 -0.839844 1.765625 -1.585938 1.765625 -2.660156 L 1.765625 -5.808594 L 0.722656 -5.808594 L 0.722656 -2.660156 C 0.722656 -1.011719 1.480469 0.0859375 3.222656 0.0859375 C 3.96875 0.0859375 4.617188 -0.128906 5.042969 -0.753906 Z M 5.042969 -0.753906 "/></g></g></g><g fill="#14213d" fill-opacity="1"><g transform="translate(68.211925, 18.145163)"><g><path d="M 2.160156 -5.757812 L 2.160156 -7.035156 L 1.117188 -6.832031 L 1.117188 -5.757812 L 0.253906 -5.757812 L 0.253906 -4.925781 L 1.117188 -4.925781 L 1.117188 -1.691406 C 1.117188 -0.351562 1.851562 0.03125 2.980469 0.03125 C 3.128906 0.03125 3.289062 0.0195312 3.457031 0.0117188 L 3.457031 -0.863281 C 3.296875 -0.851562 3.148438 -0.839844 3.023438 -0.839844 C 2.5 -0.839844 2.160156 -1 2.160156 -1.679688 L 2.160156 -4.925781 L 3.425781 -4.925781 L 3.425781 -5.757812 Z M 2.160156 -5.757812 "/></g></g></g><g fill="#14213d" fill-opacity="1"><g transform="translate(71.679657, 18.145163)"><g><path d="M 6.777344 0 L 6.777344 -5.757812 L 5.734375 -5.757812 L 5.746094 -4.992188 C 5.234375 -5.683594 4.375 -5.851562 3.660156 -5.851562 C 1.714844 -5.851562 0.585938 -4.457031 0.585938 -2.90625 C 0.585938 -1.320312 1.671875 0.0976562 3.679688 0.0976562 C 4.394531 0.0859375 5.320312 -0.148438 5.734375 -0.777344 L 5.734375 0 Z M 5.734375 -2.882812 C 5.734375 -1.5 4.617188 -0.828125 3.660156 -0.828125 C 2.382812 -0.828125 1.628906 -1.820312 1.628906 -2.90625 C 1.628906 -4.042969 2.394531 -4.9375 3.660156 -4.9375 C 4.640625 -4.9375 5.734375 -4.257812 5.734375 -2.882812 Z M 5.734375 -2.882812 "/></g></g></g></svg>